<?xml version="1.0" encoding="UTF-8" standalone="no"?>
<!-- Created with Inkscape (http://www.inkscape.org/) -->

<svg
   version="1.1"
   id="svg148"
   width="1000"
   height="450"
   viewBox="0 0 1000 450"
   sodipodi:docname="logo_path.svg"
   inkscape:version="1.2.2 (732a01da63, 2022-12-09, custom)"
   inkscape:export-filename="../7389408b/slothstud.png"
   inkscape:export-xdpi="48"
   inkscape:export-ydpi="48"
   xmlns:inkscape="http://www.inkscape.org/namespaces/inkscape"
   xmlns:sodipodi="http://sodipodi.sourceforge.net/DTD/sodipodi-0.dtd"
   xmlns="http://www.w3.org/2000/svg"
   xmlns:svg="http://www.w3.org/2000/svg">
  <defs
     id="defs152" />
  <sodipodi:namedview
     id="namedview150"
     pagecolor="#ffffff"
     bordercolor="#666666"
     borderopacity="1.0"
     inkscape:showpageshadow="2"
     inkscape:pageopacity="0.0"
     inkscape:pagecheckerboard="0"
     inkscape:deskcolor="#d1d1d1"
     showgrid="false"
     inkscape:zoom="0.86122881"
     inkscape:cx="318.15006"
     inkscape:cy="142.23862"
     inkscape:window-width="1920"
     inkscape:window-height="1016"
     inkscape:window-x="0"
     inkscape:window-y="27"
     inkscape:window-maximized="1"
     inkscape:current-layer="g4154" />
  <g
     inkscape:groupmode="layer"
     inkscape:label="Image"
     id="g154">
    <rect
       style="fill:#ffffff;fill-opacity:0;stroke:none;stroke-width:7.64538;stroke-dasharray:none;stroke-opacity:1"
       id="rect4324"
       width="1000"
       height="450"
       x="0"
       y="0"
       ry="0"
       inkscape:export-filename="../7389408b/slothstud.png"
       inkscape:export-xdpi="48"
       inkscape:export-ydpi="48" />
    <g
       id="g4146"
       transform="translate(0,-2.1464723)">
      <path
         style="fill:#1a1a1a;stroke:none;stroke-width:3.26929;stroke-linecap:butt;stroke-linejoin:miter;stroke-dasharray:none;stroke-opacity:1"
         d="m 109.08589,123.29695 c 10.92129,1.95236 11.08311,5.42265 14.75815,8.14521 3.56843,2.64358 6.09518,5.88376 7.61744,9.84542 1.75453,4.56615 0.41158,7.31522 -1.39946,9.62366 -18.28878,12.25154 -35.228504,27.13336 -49.577434,47.06648 -9.61515,16.10964 -8.24396,31.74308 -9.59596,47.49456 2.61812,14.97197 4.00164,29.91022 9.94319,44.97296 3.08214,6.34039 6.16592,12.18389 12.39915,18.61723 16.618944,17.15248 33.292634,31.31936 53.659704,39.61091 30.67554,12.48819 58.58937,7.36437 74.45359,1.84249 9.77971,-2.97497 19.21888,-6.42117 26.71251,-12.59559 18.66763,-15.3813 33.99956,-34.03288 41.66283,-56.65805 10.16003,-29.99665 9.75015,-45.12635 7.55494,-59.91952 -2.899,-19.53593 -16.07971,-36.99246 -34.7898,-53.26262 -13.44699,-11.20721 -27.63747,-20.19722 -42.04134,-28.55084 -5.39888,-6.28731 -8.34408,-12.57461 -10.73668,-18.86192 -3.96495,-5.19702 -8.15745,-9.94785 -13.90851,-11.64259 3.70254,9.75957 5.18525,23.59801 5.18525,23.59801 0,0 -10.73482,-15.28461 -14.88999,-18.25899 -8.11047,-5.80571 -16.02435,-11.53106 -26.04514,-13.55387 -7.68683,-1.496518 -14.91403,-3.987885 -24.01615,-2.421008 8.49951,4.929128 13.72882,10.200008 17.31145,14.787368 5.37919,6.88776 5.81248,10.77414 7.91032,15.59385 1.46397,3.3634 2.94162,6.50159 1.73804,9.39475 -7.51789,-5.93829 -14.94619,-11.94151 -26.20597,-15.16743 -7.74534,-1.74397 -15.49068,-3.02897 -23.23602,-2.00033 z"
         id="path325"
         sodipodi:nodetypes="cssccccsscssscccccsccsscccc" />
      <path
         style="fill:#ffffff;stroke:none;stroke-width:1px;stroke-linecap:butt;stroke-linejoin:miter;stroke-opacity:1"
         d="m 201.06015,180.24329 c -4.31364,-4.65363 -6.10325,-10.92892 -17.79483,-14.48173 -8.7469,-2.32568 -7.11709,0.34178 -10.3834,0.65329 -20.91952,14.04314 -41.60006,21.0085 -61.74485,45.28177 -10.34541,18.36486 -5.8256,24.77223 -6.57916,35.42147 5.92786,-6.80059 11.48119,-16.54822 16.90871,-27.28572 3.83323,-8.85215 10.73622,-14.05252 17.48287,-19.43886 9.04992,-4.35684 18.09984,-7.37711 27.14976,-7.43171 10.70297,-0.20975 11.63953,1.15726 15.58941,2.03777 -4.84656,0.74006 -10.11364,1.23176 -10.76626,4.4488 4.40454,19.13355 3.23201,21.00787 4.39926,30.12307 0.59628,11.66581 -5.98369,15.93476 -11.58286,21.21466 -7.68877,4.71277 -18.29154,5.25066 -28.62761,6.17066 -8.60655,-0.29914 -11.22931,0.87075 -16.30621,1.62039 -5.02147,1.9136 -6.82281,4.62771 -9.22777,7.19176 17.83123,30.07937 21.22858,29.5652 31.78284,37.91484 20.09002,15.89352 35.6175,18.19928 53.61127,20.64781 16.45714,-0.10617 30.37739,-2.40648 47.92404,-15.26041 16.64502,-12.82967 24.61443,-30.82713 28.94982,-43.48279 -8.9759,-13.10332 -18.77333,-10.55787 -28.78434,-9.40079 -2.62431,-4.9224 -2.63833,-9.61362 -18.97858,-15.75075 -8.27803,-4.25873 -6.14026,-8.32341 -7.90172,-12.46073 -0.94613,-16.45621 1.29068,-21.83688 3.3705,-27.76381 0.0793,-1.15241 -2.90753,-1.98162 -8.86242,-2.49797 11.39448,-5.12272 15.3968,-3.17375 15.73818,-3.09248 14.84442,3.53406 18.38455,5.56892 25.39897,9.46383 5.52256,4.78225 9.97261,10.21173 13.05171,16.46854 2.85713,7.30944 6.97585,11.73237 11.16537,15.99334 1.7404,-14.43842 -4.81368,-24.62464 -13.71739,-33.60633 -8.44753,-8.14695 -18.03934,-14.97435 -27.10708,-22.40609 -7.18955,-5.59099 -17.19091,-13.469 -23.61653,-12.834 -6.62782,0.65498 -7.97994,8.09195 -10.5417,12.54217 z"
         id="path881"
         sodipodi:nodetypes="cccccccccccccccsccccccccscccccsc" />
      <path
         style="fill:#1a1a1a;stroke:none;stroke-width:1px;stroke-linecap:butt;stroke-linejoin:miter;stroke-opacity:1"
         d="m 191.09348,227.53631 c -5.99228,4.05699 -9.10414,10.1595 -11.47848,16.78575 -1.60416,7.92014 1.23914,9.33323 4.03467,10.81621 5.0436,2.91284 10.87716,2.95964 16.59054,3.44249 4.90907,-1.97692 10.73145,-2.66439 14.48351,-6.27487 2.19127,-1.41093 3.03785,-4.25577 3.25304,-7.77391 -0.44049,-4.87708 -3.69087,-9.52003 -7.67792,-14.10159 -3.18467,-1.96073 -5.72674,-4.13489 -12.48631,-4.90834 -2.23969,0.33214 -4.47937,0.90572 -6.71905,2.01426 z"
         id="path883"
         sodipodi:nodetypes="ccccccccc" />
      <path
         style="fill:#1a1a1a;stroke:none;stroke-width:1px;stroke-linecap:butt;stroke-linejoin:miter;stroke-opacity:1"
         d="m 208.45819,255.81106 c 3.2434,4.21262 5.16622,5.8497 5.98879,5.34098 4.63714,-0.51162 7.39707,-3.95583 10.67691,-6.58785 3.26694,3.93588 2.36926,9.42243 2.75852,14.4298 -1.18957,9.06434 -4.49717,10.56344 -6.53908,13.24932 1.19015,-5.03352 2.50851,-9.40256 2.5262,-13.98226 0.0163,-4.22132 -0.24256,-5.29445 -0.75076,-6.06368 -2.62911,2.41123 -5.50095,4.59732 -9.46495,5.77038 -5.81608,1.85005 -12.15118,2.47746 -19.12331,1.6042 -7.14946,-2.19031 -8.8928,-6.59522 -12.45904,-10.25338 4.78585,2.84875 9.70707,6.86196 14.91889,6.67327 6.04886,-0.21901 9.76783,-0.89566 13.39379,-2.289 -0.9341,-3.28062 -4.45019,-5.92896 -6.89907,-8.83864 z"
         id="path885"
         sodipodi:nodetypes="cccccsccccsccc" />
      <path
         style="fill:#f9f9f9;fill-opacity:0.941176;stroke:none;stroke-width:3.26929;stroke-dasharray:none;stroke-opacity:1"
         id="path1093"
         sodipodi:type="arc"
         sodipodi:cx="149.11095"
         sodipodi:cy="222.52841"
         sodipodi:rx="14.243002"
         sodipodi:ry="14.243002"
         sodipodi:start="0.27925268"
         sodipodi:end="2.560398"
         sodipodi:open="true"
         sodipodi:arc-type="arc"
         d="m 162.8022,226.45432 a 14.243002,14.243002 0 0 1 -11.54913,10.15509 14.243002,14.243002 0 0 1 -14.04653,-6.26126" />
      <path
         style="fill:#f9f9f9;fill-opacity:0.941176;stroke:none;stroke-width:3.26929;stroke-dasharray:none;stroke-opacity:1"
         id="path1093-3"
         sodipodi:type="arc"
         sodipodi:cx="-238.79366"
         sodipodi:cy="221.80444"
         sodipodi:rx="14.243002"
         sodipodi:ry="14.243002"
         sodipodi:start="0.27925268"
         sodipodi:end="2.560398"
         sodipodi:open="true"
         sodipodi:arc-type="arc"
         d="m -225.1024,225.73035 a 14.243002,14.243002 0 0 1 -11.54913,10.15509 14.243002,14.243002 0 0 1 -14.04653,-6.26126"
         transform="scale(-1,1)" />
    </g>
    <g
       id="g4154"
       transform="translate(-43.073348,21.194449)">
      <g
         id="g488"
         transform="translate(0,7.5096808)">
        <g
           aria-label="$LOTH STUDIO"
           id="text3354"
           style="font-size:79.6244px;line-height:1.25;letter-spacing:0px;word-spacing:0px;stroke-width:1.99061">
          <path
             d="m 386.55605,215.1618 h 10.10696 v -12.65493 c 9.93709,-2.03838 15.71249,-8.40831 15.71249,-17.49607 0,-21.31804 -31.00032,-13.92892 -31.00032,-25.81946 0,-4.50141 4.07675,-7.04938 11.46587,-7.04938 4.84115,0 10.19189,0.93425 14.43851,2.54797 l 3.1425,-8.66311 c -4.07676,-1.78358 -8.9179,-2.97263 -13.75905,-3.31236 v -11.55081 h -10.10696 v 12.0604 c -10.10695,1.95345 -16.56181,8.49324 -16.56181,17.66594 0,20.12898 30.91539,13.50425 30.91539,25.47972 0,4.33156 -3.82196,6.96446 -11.04121,6.96446 -5.35074,0 -11.89054,-1.18905 -17.75087,-3.65209 l -3.05757,8.83297 c 5.35074,2.46304 11.55081,4.16169 17.49607,4.58635 z"
             style="font-weight:bold;font-size:84.9324px;font-family:Cantarell;-inkscape-font-specification:'Cantarell Bold'"
             id="path318" />
          <path
             d="m 424.77557,202.33701 h 36.35107 v -9.6823 h -25.39479 v -49.26079 h -10.95628 z"
             style="font-weight:bold;font-size:84.9324px;font-family:Cantarell;-inkscape-font-specification:'Cantarell Bold'"
             id="path320" />
          <path
             d="m 495.26935,203.1014 c 17.75087,0 29.55648,-12.3152 29.55648,-30.74553 0,-17.83581 -11.46588,-29.81128 -28.70716,-29.81128 -17.49607,0 -29.13181,12.3152 -29.13181,30.74553 0,17.92074 11.29601,29.81128 28.28249,29.81128 z m 0.84932,-9.51243 c -10.70148,0 -17.75087,-8.49324 -17.75087,-21.2331 0,-12.14534 6.70966,-20.21391 16.90155,-20.21391 10.87135,0 18.17553,8.4083 18.17553,21.14816 0,12.14534 -6.96445,20.29885 -17.32621,20.29885 z"
             style="font-weight:bold;font-size:84.9324px;font-family:Cantarell;-inkscape-font-specification:'Cantarell Bold'"
             id="path322" />
          <path
             d="m 548.94663,202.33701 h 10.87134 v -49.34573 h 18.93993 v -9.59736 h -48.66627 v 9.59736 h 18.855 z"
             style="font-weight:bold;font-size:84.9324px;font-family:Cantarell;-inkscape-font-specification:'Cantarell Bold'"
             id="path324" />
          <path
             d="m 587.42087,202.33701 h 11.12614 v -25.30986 h 27.00851 v 25.30986 h 11.12614 v -58.94309 h -11.12614 v 23.866 h -27.00851 v -23.866 h -11.12614 z"
             style="font-weight:bold;font-size:84.9324px;font-family:Cantarell;-inkscape-font-specification:'Cantarell Bold'"
             id="path326" />
          <path
             d="m 683.47919,203.18633 c 14.43851,0 23.01668,-7.13432 23.01668,-18.17553 0,-21.31804 -31.00033,-13.92892 -31.00033,-25.81946 0,-4.50141 4.16169,-7.04938 11.46588,-7.04938 4.92608,0 10.27682,0.93425 14.4385,2.54797 l 3.1425,-8.66311 c -5.01101,-2.20824 -11.12614,-3.48223 -16.90155,-3.48223 -14.09877,0 -23.52627,7.21926 -23.52627,18.3454 0,20.12898 30.91539,13.50425 30.91539,25.47972 0,4.33156 -3.73702,6.96446 -11.04121,6.96446 -5.35074,0 -11.89053,-1.18905 -17.75087,-3.65209 l -3.05757,8.83297 c 6.285,2.8877 13.50425,4.67128 20.29885,4.67128 z"
             style="font-weight:bold;font-size:84.9324px;font-family:Cantarell;-inkscape-font-specification:'Cantarell Bold'"
             id="path328" />
          <path
             d="m 729.93715,202.33701 h 10.87135 v -49.34573 h 18.93992 v -9.59736 h -48.66626 v 9.59736 h 18.85499 z"
             style="font-weight:bold;font-size:84.9324px;font-family:Cantarell;-inkscape-font-specification:'Cantarell Bold'"
             id="path330" />
          <path
             d="m 790.74862,203.18633 c 14.9481,0 24.71532,-9.34256 24.71532,-23.52628 v -36.26613 h -10.78641 v 37.54012 c 0,7.98365 -4.67128,12.73986 -12.57,12.73986 -8.83297,0 -13.84398,-5.35074 -13.84398,-14.26864 v -36.01134 h -10.95628 v 36.86066 c 0,14.09878 9.00284,22.93175 23.44135,22.93175 z"
             style="font-weight:bold;font-size:84.9324px;font-family:Cantarell;-inkscape-font-specification:'Cantarell Bold'"
             id="path332" />
          <path
             d="m 828.7133,202.33701 h 19.53446 c 19.02485,0 31.76472,-11.89054 31.76472,-30.6606 0,-17.75087 -11.38095,-28.28249 -30.57567,-28.28249 H 828.7133 Z m 10.87135,-9.4275 v -40.0881 h 9.00284 c 12.82479,0 20.12898,7.47406 20.12898,20.29885 0,12.65493 -6.87953,19.78925 -19.19473,19.78925 z"
             style="font-weight:bold;font-size:84.9324px;font-family:Cantarell;-inkscape-font-specification:'Cantarell Bold'"
             id="path334" />
          <path
             d="m 891.0536,202.33701 h 11.12615 V 143.39392 H 891.0536 Z"
             style="font-weight:bold;font-size:84.9324px;font-family:Cantarell;-inkscape-font-specification:'Cantarell Bold'"
             id="path336" />
          <path
             d="m 941.50337,203.1014 c 17.75088,0 29.55648,-12.3152 29.55648,-30.74553 0,-17.83581 -11.46587,-29.81128 -28.70715,-29.81128 -17.49608,0 -29.13182,12.3152 -29.13182,30.74553 0,17.92074 11.29601,29.81128 28.28249,29.81128 z m 0.84933,-9.51243 c -10.70148,0 -17.75087,-8.49324 -17.75087,-21.2331 0,-12.14534 6.70966,-20.21391 16.90154,-20.21391 10.87135,0 18.17554,8.4083 18.17554,21.14816 0,12.14534 -6.96446,20.29885 -17.32621,20.29885 z"
             style="font-weight:bold;font-size:84.9324px;font-family:Cantarell;-inkscape-font-specification:'Cantarell Bold'"
             id="path338" />
        </g>
        <g
           aria-label="GAMES WITHOUT RELEASE DATE"
           id="text4138"
           style="font-size:36.9884px;line-height:1.25;letter-spacing:0px;word-spacing:0px;stroke-width:1.54117">
          <path
             d="m 389.17022,257.05739 v -7.24236 h -5.96005 v -2.99808 h 9.5722 v 11.57693 q -2.11311,1.49905 -4.65967,2.27566 -2.54657,0.75855 -5.43629,0.75855 -6.32126,0 -9.89728,-3.68439 -3.55797,-3.70245 -3.55797,-10.29463 0,-6.61023 3.55797,-10.29462 3.57602,-3.70245 9.89728,-3.70245 2.63687,0 5.00283,0.65019 2.38402,0.65018 4.38876,1.91443 v 3.88306 q -2.0228,-1.71577 -4.29846,-2.58268 -2.27565,-0.86692 -4.78609,-0.86692 -4.94865,0 -7.44103,2.7633 -2.47432,2.76329 -2.47432,8.23569 0,5.45435 2.47432,8.21764 2.49238,2.7633 7.44103,2.7633 1.93249,0 3.4496,-0.3251 1.5171,-0.34315 2.72717,-1.04752 z"
             id="path341" />
          <path
             d="m 408.45909,237.53373 -4.94864,13.41913 h 9.91535 z m -2.05892,-3.59409 h 4.13591 l 10.27656,26.96469 h -3.79276 l -2.45626,-6.91727 h -12.15488 l -2.45626,6.91727 h -3.84694 z"
             id="path343" />
          <path
             d="m 424.74988,233.93964 h 5.43628 l 6.88115,18.34971 6.91726,-18.34971 h 5.43628 v 26.96469 h -3.55796 v -23.67764 l -6.95339,18.4942 h -3.66633 l -6.95338,-18.4942 v 23.67764 h -3.53991 z"
             id="path345" />
          <path
             d="m 456.66321,233.93964 h 17.04934 v 3.07033 h -13.40107 v 7.98284 h 12.84119 v 3.07033 h -12.84119 v 9.77086 h 13.72617 v 3.07033 h -17.37444 z"
             id="path347" />
          <path
             d="m 496.19818,234.82462 v 3.55796 q -2.07699,-0.99334 -3.91919,-1.48098 -1.84219,-0.48764 -3.55796,-0.48764 -2.98002,0 -4.60549,1.15589 -1.60741,1.15589 -1.60741,3.28705 0,1.78802 1.06559,2.70912 1.08364,0.90303 4.08172,1.46292 l 2.20342,0.45151 q 4.08172,0.77662 6.01422,2.74524 1.95056,1.95056 1.95056,5.23761 0,3.91918 -2.63687,5.94199 -2.6188,2.0228 -7.69387,2.0228 -1.91444,0 -4.08173,-0.43346 -2.14923,-0.43346 -4.461,-1.28231 v -3.75664 q 2.22147,1.2462 4.35264,1.87832 2.13116,0.63213 4.19009,0.63213 3.12451,0 4.82222,-1.22813 1.69771,-1.22813 1.69771,-3.50379 0,-1.98668 -1.22813,-3.10644 -1.21007,-1.11977 -3.99143,-1.67965 l -2.22147,-0.43346 q -4.08173,-0.81273 -5.90586,-2.54657 -1.82414,-1.73383 -1.82414,-4.82221 0,-3.57603 2.51045,-5.63496 2.5285,-2.05892 6.95338,-2.05892 1.89638,0 3.865,0.34315 1.96862,0.34316 4.02755,1.02947 z"
             id="path349" />
          <path
             d="m 512.86824,233.93964 h 3.68439 l 5.67107,22.79266 5.65301,-22.79266 h 4.09979 l 5.67107,22.79266 5.65302,-22.79266 h 3.70245 l -6.77278,26.96469 h -4.58743 l -5.68913,-23.40672 -5.74332,23.40672 h -4.58743 z"
             id="path351" />
          <path
             d="m 551.84331,233.93964 h 3.64827 v 26.96469 h -3.64827 z"
             id="path353" />
          <path
             d="m 559.01343,233.93964 h 22.81072 v 3.07033 h -9.57219 v 23.89436 h -3.66634 v -23.89436 h -9.57219 z"
             id="path355" />
          <path
             d="m 585.346,233.93964 h 3.64827 v 11.05317 h 13.25658 v -11.05317 h 3.64827 v 26.96469 h -3.64827 v -12.84119 h -13.25658 v 12.84119 H 585.346 Z"
             id="path357" />
          <path
             d="m 624.10435,236.41396 q -3.97337,0 -6.32126,2.96196 -2.32984,2.96196 -2.32984,8.07315 0,5.09313 2.32984,8.0551 2.34789,2.96196 6.32126,2.96196 3.97336,0 6.28513,-2.96196 2.32984,-2.96197 2.32984,-8.0551 0,-5.11119 -2.32984,-8.07315 -2.31177,-2.96196 -6.28513,-2.96196 z m 0,-2.96196 q 5.67107,0 9.06649,3.81082 3.39542,3.79275 3.39542,10.18625 0,6.37545 -3.39542,10.18626 -3.39542,3.79276 -9.06649,3.79276 -5.68914,0 -9.10262,-3.79276 -3.39542,-3.79275 -3.39542,-10.18626 0,-6.3935 3.39542,-10.18625 3.41348,-3.81082 9.10262,-3.81082 z"
             id="path359" />
          <path
             d="m 641.85806,233.93964 h 3.66633 v 16.38109 q 0,4.33458 1.57129,6.24902 1.57128,1.89638 5.09313,1.89638 3.50378,0 5.07506,-1.89638 1.57129,-1.91444 1.57129,-6.24902 v -16.38109 h 3.66633 v 16.83261 q 0,5.27374 -2.61881,7.96479 -2.60074,2.69105 -7.69387,2.69105 -5.11119,0 -7.73,-2.69105 -2.60075,-2.69105 -2.60075,-7.96479 z"
             id="path361" />
          <path
             d="m 665.60794,233.93964 h 22.81072 v 3.07033 h -9.57219 v 23.89436 h -3.66633 v -23.89436 h -9.5722 z"
             id="path363" />
          <path
             d="m 716.48506,248.26181 q 1.17394,0.39733 2.27565,1.69771 1.11976,1.30037 2.23953,3.57602 l 3.70245,7.36879 h -3.91918 l -3.4496,-6.91727 q -1.3365,-2.70911 -2.60075,-3.59408 -1.24619,-0.88498 -3.41348,-0.88498 h -3.97336 v 11.39633 h -3.64827 v -26.96469 h 8.2357 q 4.62355,0 6.8992,1.9325 2.27565,1.9325 2.27565,5.83362 0,2.54656 -1.192,4.22621 -1.17395,1.67965 -3.43154,2.32984 z m -9.13874,-11.32409 v 9.5722 h 4.58743 q 2.63687,0 3.97336,-1.21007 1.35456,-1.22813 1.35456,-3.59409 0,-2.36596 -1.35456,-3.55797 -1.33649,-1.21007 -3.97336,-1.21007 z"
             id="path365" />
          <path
             d="m 729.39846,233.93964 h 17.04934 v 3.07033 h -13.40107 v 7.98284 h 12.84119 v 3.07033 h -12.84119 v 9.77086 h 13.72616 v 3.07033 h -17.37443 z"
             id="path367" />
          <path
             d="m 752.76906,233.93964 h 3.64827 V 257.834 h 13.13016 v 3.07033 h -16.77843 z"
             id="path369" />
          <path
             d="m 773.37639,233.93964 h 17.04934 v 3.07033 h -13.40107 v 7.98284 h 12.84119 v 3.07033 h -12.84119 v 9.77086 h 13.72617 v 3.07033 h -17.37444 z"
             id="path371" />
          <path
             d="m 805.75928,237.53373 -4.94864,13.41913 h 9.91534 z m -2.05892,-3.59409 h 4.1359 l 10.27657,26.96469 h -3.79276 l -2.45626,-6.91727 h -12.15488 l -2.45626,6.91727 h -3.84694 z"
             id="path373" />
          <path
             d="m 838.21443,234.82462 v 3.55796 q -2.07698,-0.99334 -3.91918,-1.48098 -1.84219,-0.48764 -3.55796,-0.48764 -2.98003,0 -4.60549,1.15589 -1.60741,1.15589 -1.60741,3.28705 0,1.78802 1.06559,2.70912 1.08364,0.90303 4.08172,1.46292 l 2.20341,0.45151 q 4.08173,0.77662 6.01423,2.74524 1.95056,1.95056 1.95056,5.23761 0,3.91918 -2.63687,5.94199 -2.61881,2.0228 -7.69387,2.0228 -1.91444,0 -4.08173,-0.43346 -2.14923,-0.43346 -4.461,-1.28231 v -3.75664 q 2.22147,1.2462 4.35263,1.87832 2.13117,0.63213 4.1901,0.63213 3.1245,0 4.82221,-1.22813 1.69771,-1.22813 1.69771,-3.50379 0,-1.98668 -1.22813,-3.10644 -1.21007,-1.11977 -3.99142,-1.67965 l -2.22147,-0.43346 q -4.08173,-0.81273 -5.90586,-2.54657 -1.82414,-1.73383 -1.82414,-4.82221 0,-3.57603 2.51044,-5.63496 2.52851,-2.05892 6.95339,-2.05892 1.89638,0 3.865,0.34315 1.96862,0.34316 4.02754,1.02947 z"
             id="path375" />
          <path
             d="m 845.52904,233.93964 h 17.04934 v 3.07033 h -13.40107 v 7.98284 h 12.84119 v 3.07033 h -12.84119 v 9.77086 h 13.72617 v 3.07033 h -17.37444 z"
             id="path377" />
          <path
             d="m 884.30546,236.93772 v 20.96852 h 4.40682 q 5.58077,0 8.16345,-2.5285 2.60075,-2.5285 2.60075,-7.98285 0,-5.41822 -2.60075,-7.92866 -2.58268,-2.52851 -8.16345,-2.52851 z m -3.64827,-2.99808 h 7.4952 q 7.83837,0 11.5047,3.26899 3.66633,3.25094 3.66633,10.18626 0,6.97145 -3.68439,10.24044 -3.68439,3.269 -11.48664,3.269 h -7.4952 z"
             id="path379" />
          <path
             d="m 917.5011,237.53373 -4.94864,13.41913 h 9.91534 z m -2.05892,-3.59409 h 4.13591 l 10.27656,26.96469 h -3.79276 l -2.45626,-6.91727 h -12.15488 l -2.45626,6.91727 h -3.84694 z"
             id="path381" />
          <path
             d="m 927.18167,233.93964 h 22.81072 v 3.07033 h -9.57219 v 23.89436 h -3.66633 v -23.89436 h -9.5722 z"
             id="path383" />
          <path
             d="m 953.51424,233.93964 h 17.04934 v 3.07033 h -13.40107 v 7.98284 h 12.84119 v 3.07033 h -12.84119 v 9.77086 h 13.72617 v 3.07033 h -17.37444 z"
             id="path385" />
        </g>
      </g>
    </g>
  </g>
</svg>
